<?xml version="1.0" encoding="utf-8"?>
<!-- Generator: Adobe Illustrator 19.0.0, SVG Export Plug-In . SVG Version: 6.00 Build 0)  -->
<svg version="1.1" xmlns="http://www.w3.org/2000/svg" xmlns:xlink="http://www.w3.org/1999/xlink" x="0px" y="0px"
	 viewBox="0 0 108 64.7" style="enable-background:new 0 0 108 64.7;" xml:space="preserve">
<style type="text/css">
	.st0{fill:#FFFFFF;}
</style>
<g id="BG">
</g>
<g id="Object">
	<path class="st0" d="M95.4,38c-0.3,0-0.6,0-0.9,0c0-0.1,0-0.2,0-0.3c0-9.2-6.8-16.8-15.7-18c0-0.1,0-0.1,0-0.2
		c0-2.1-1.7-3.8-3.8-3.8c-0.5,0-1,0.1-1.5,0.3C69.4,8,60.9,2.4,51.1,2.4c-11.6,0-21.3,7.8-24.3,18.4c-0.9-0.3-1.9-0.4-2.9-0.4
		c-5.4,0-9.8,4.4-9.8,9.8c0,1.7,0.4,3.2,1.1,4.6C8,34.9,2.2,40.9,2.2,48.1c0,7.4,6,13.4,13.4,13.4s74.9,0,79.9,0
		c6.5,0,11.8-5.3,11.8-11.8S101.9,38,95.4,38z"/>
	<g>
	</g>
	<g>
	</g>
	<g>
	</g>
	<g>
	</g>
	<g>
	</g>
	<g>
	</g>
	<g>
	</g>
	<g>
	</g>
	<g>
	</g>
	<g>
	</g>
	<g>
	</g>
	<g>
	</g>
	<g>
	</g>
	<g>
	</g>
	<g>
	</g>
</g>
</svg>
