<?xml version="1.0" encoding="utf-8"?>
<!-- Generator: Adobe Illustrator 19.0.0, SVG Export Plug-In . SVG Version: 6.00 Build 0)  -->
<svg version="1.1" id="Capa_1" xmlns="http://www.w3.org/2000/svg" xmlns:xlink="http://www.w3.org/1999/xlink" x="0px" y="0px"
	 viewBox="0 0 365.2 364.5" style="enable-background:new 0 0 365.2 364.5;" xml:space="preserve">
<style type="text/css">
	.st0{fill:#A99E92;}
	.st1{fill:none;stroke:#FFFFFF;stroke-width:5;}
	.st2{fill:#474543;}
	.st3{fill:none;stroke:#FFFFFF;stroke-width:6;}
	.st4{clip-path:url(#SVGID_2_);fill:url(#SVGID_3_);}
	.st5{clip-path:url(#SVGID_5_);fill:url(#SVGID_6_);}
	.st6{clip-path:url(#SVGID_8_);fill:url(#SVGID_9_);}
	.st7{clip-path:url(#SVGID_11_);fill:url(#SVGID_12_);}
	.st8{clip-path:url(#SVGID_14_);fill:url(#SVGID_15_);}
	.st9{clip-path:url(#SVGID_17_);fill:url(#SVGID_18_);}
	.st10{clip-path:url(#SVGID_20_);fill:none;stroke:#FFFFFF;stroke-width:37;stroke-miterlimit:10;}
	.st11{clip-path:url(#SVGID_20_);fill:none;stroke:#1D1D1B;stroke-width:25;stroke-miterlimit:10;}
	.st12{clip-path:url(#SVGID_20_);fill:#1D1D1B;}
</style>
<rect x="32.2" y="2.4" class="st0" width="330.6" height="360.2"/>
<rect x="32.2" y="2.4" class="st1" width="330.6" height="360.2"/>
<rect x="35" y="1.3" class="st2" width="86.4" height="360.2"/>
<rect x="35" y="1.3" class="st3" width="86.4" height="360.2"/>
<g>
	<defs>
		<rect id="SVGID_1_" x="-50" y="-219.4" width="595.3" height="841.9"/>
	</defs>
	<clipPath id="SVGID_2_">
		<use xlink:href="#SVGID_1_"  style="overflow:visible;"/>
	</clipPath>
	
		<linearGradient id="SVGID_3_" gradientUnits="userSpaceOnUse" x1="-50" y1="622.5" x2="-49" y2="622.5" gradientTransform="matrix(37.939 0 0 -37.939 1936.6426 23673.6367)">
		<stop  offset="0" style="stop-color:#FFFFFF"/>
		<stop  offset="0.4865" style="stop-color:#FFFFFF"/>
		<stop  offset="1" style="stop-color:#1D1D1B"/>
	</linearGradient>
	<path class="st4" d="M74.1,56.6h3c0,10.2-8.3,18.5-18.5,18.5c-10.2,0-18.5-8.3-18.5-18.5c0-10.2,8.3-18.5,18.5-18.5
		c10.2,0,18.5,8.3,18.5,18.5H74.1h-3c0-6.9-5.6-12.5-12.5-12.5c-6.9,0-12.5,5.6-12.5,12.5c0,6.9,5.6,12.5,12.5,12.5
		c6.9,0,12.5-5.6,12.5-12.5H74.1z"/>
</g>
<g>
	<defs>
		<path id="SVGID_4_" d="M10.5,45.6c-5.3,0-9.5,4.3-9.5,9.5v2.9c0,5.3,4.3,9.5,9.5,9.5h48.9c5.3,0,9.5-4.3,9.5-9.5v-2.9
			c0-5.3-4.3-9.5-9.5-9.5H10.5z"/>
	</defs>
	<clipPath id="SVGID_5_">
		<use xlink:href="#SVGID_4_"  style="overflow:visible;"/>
	</clipPath>
	
		<linearGradient id="SVGID_6_" gradientUnits="userSpaceOnUse" x1="-50" y1="622.5" x2="-49" y2="622.5" gradientTransform="matrix(0 -22 -22 0 13730 -1032.3899)">
		<stop  offset="0" style="stop-color:#1D1D1B"/>
		<stop  offset="0.4865" style="stop-color:#FFFFFF"/>
		<stop  offset="1" style="stop-color:#1D1D1B"/>
	</linearGradient>
	<rect x="1" y="45.6" class="st5" width="68" height="22"/>
</g>
<g>
	<defs>
		<rect id="SVGID_7_" x="-50" y="-219.4" width="595.3" height="841.9"/>
	</defs>
	<clipPath id="SVGID_8_">
		<use xlink:href="#SVGID_7_"  style="overflow:visible;"/>
	</clipPath>
	
		<linearGradient id="SVGID_9_" gradientUnits="userSpaceOnUse" x1="-50" y1="622.5" x2="-49" y2="622.5" gradientTransform="matrix(37.939 0 0 -37.939 1936.6426 23795.3359)">
		<stop  offset="0" style="stop-color:#FFFFFF"/>
		<stop  offset="0.4865" style="stop-color:#FFFFFF"/>
		<stop  offset="1" style="stop-color:#1D1D1B"/>
	</linearGradient>
	<path class="st6" d="M74.1,178.3h3c0,10.2-8.3,18.5-18.5,18.5c-10.2,0-18.5-8.3-18.5-18.5c0-10.2,8.3-18.5,18.5-18.5
		c10.2,0,18.5,8.3,18.5,18.5H74.1h-3c0-6.9-5.6-12.5-12.5-12.5c-6.9,0-12.5,5.6-12.5,12.5c0,6.9,5.6,12.5,12.5,12.5
		c6.9,0,12.5-5.6,12.5-12.5H74.1z"/>
</g>
<g>
	<defs>
		<path id="SVGID_10_" d="M10.5,167.3c-5.3,0-9.5,4.3-9.5,9.5v2.9c0,5.3,4.3,9.5,9.5,9.5h48.9c5.3,0,9.5-4.3,9.5-9.5v-2.9
			c0-5.3-4.3-9.5-9.5-9.5H10.5z"/>
	</defs>
	<clipPath id="SVGID_11_">
		<use xlink:href="#SVGID_10_"  style="overflow:visible;"/>
	</clipPath>
	
		<linearGradient id="SVGID_12_" gradientUnits="userSpaceOnUse" x1="-50" y1="622.5" x2="-49" y2="622.5" gradientTransform="matrix(0 -22 -22 0 13730 -910.6909)">
		<stop  offset="0" style="stop-color:#1D1D1B"/>
		<stop  offset="0.4865" style="stop-color:#FFFFFF"/>
		<stop  offset="1" style="stop-color:#1D1D1B"/>
	</linearGradient>
	<rect x="1" y="167.3" class="st7" width="68" height="22"/>
</g>
<g>
	<defs>
		<rect id="SVGID_13_" x="-50" y="-219.4" width="595.3" height="841.9"/>
	</defs>
	<clipPath id="SVGID_14_">
		<use xlink:href="#SVGID_13_"  style="overflow:visible;"/>
	</clipPath>
	
		<linearGradient id="SVGID_15_" gradientUnits="userSpaceOnUse" x1="-50" y1="622.5" x2="-49" y2="622.5" gradientTransform="matrix(37.939 0 0 -37.939 1936.6426 23917.0352)">
		<stop  offset="0" style="stop-color:#FFFFFF"/>
		<stop  offset="0.4865" style="stop-color:#FFFFFF"/>
		<stop  offset="1" style="stop-color:#1D1D1B"/>
	</linearGradient>
	<path class="st8" d="M74.1,300h3c0,10.2-8.3,18.5-18.5,18.5c-10.2,0-18.5-8.3-18.5-18.5c0-10.2,8.3-18.5,18.5-18.5
		c10.2,0,18.5,8.3,18.5,18.5H74.1h-3c0-6.9-5.6-12.5-12.5-12.5c-6.9,0-12.5,5.6-12.5,12.5c0,6.9,5.6,12.5,12.5,12.5
		c6.9,0,12.5-5.6,12.5-12.5H74.1z"/>
</g>
<g>
	<defs>
		<path id="SVGID_16_" d="M10.5,289c-5.3,0-9.5,4.3-9.5,9.5v2.9c0,5.3,4.3,9.5,9.5,9.5h48.9c5.3,0,9.5-4.3,9.5-9.5v-2.9
			c0-5.3-4.3-9.5-9.5-9.5H10.5z"/>
	</defs>
	<clipPath id="SVGID_17_">
		<use xlink:href="#SVGID_16_"  style="overflow:visible;"/>
	</clipPath>
	
		<linearGradient id="SVGID_18_" gradientUnits="userSpaceOnUse" x1="-50" y1="622.5" x2="-49" y2="622.5" gradientTransform="matrix(0 -22 -22 0 13730 -788.992)">
		<stop  offset="0" style="stop-color:#1D1D1B"/>
		<stop  offset="0.4865" style="stop-color:#FFFFFF"/>
		<stop  offset="1" style="stop-color:#1D1D1B"/>
	</linearGradient>
	<rect x="1" y="289" class="st9" width="68" height="22"/>
</g>
<g>
	<defs>
		<rect id="SVGID_19_" x="-50" y="-219.4" width="595.3" height="841.9"/>
	</defs>
	<clipPath id="SVGID_20_">
		<use xlink:href="#SVGID_19_"  style="overflow:visible;"/>
	</clipPath>
	<path class="st10" d="M199,237.6c0-56.1,45.5-101.6,101.6-101.6"/>
	<path class="st10" d="M254.2,237.6c0-25.7,20.8-46.5,46.5-46.5"/>
	<path class="st11" d="M235.3,300.3c45,1.7,82.8-31,84.4-73"/>
	<path class="st11" d="M292,254.7c9.2-15.4,27.3-21.6,40.5-13.8"/>
	<path class="st11" d="M234.1,311c2-17.8,16-30.9,31.3-29.2"/>
	<path class="st12" d="M182.9,123.3c-4.7,0-9.1-0.7-13.3-2c-4.1-1.3-7.8-3.4-11-6.2c-3.2-2.8-5.6-6.2-7.4-10.4
		c-1.8-4.1-2.7-9-2.7-14.6c0-3.6,0.6-7.3,1.7-11.2s2.9-7.7,5.2-11.3c2.4-3.7,5.4-6.9,9.2-9.9c3.8-2.9,8.3-5.3,13.5-7
		c5.3-1.8,11.3-2.6,18.3-2.6c7.1,0,13.2,1.4,18.2,4.1c5,2.7,8.8,6.4,11.5,11.1c2.7,4.7,4,9.8,4,15.5c0,3.5-0.5,6.8-1.6,10
		c-1,3.1-2.5,5.9-4.4,8.4c-1.9,2.4-4.2,4.4-6.8,5.7c-2.6,1.4-5.5,2.1-8.7,2.1c-2.5,0-4.7-0.7-6.5-2c-1.8-1.3-3-3.1-3.5-5.4
		c-1.7,1.9-3.9,3.6-6.7,5.2c-2.8,1.6-5.7,2.4-8.6,2.4c-3.2,0-6-0.7-8.5-2c-2.5-1.4-4.4-3.3-5.9-5.8c-1.4-2.5-2.1-5.5-2.1-8.8
		c0-4.1,0.9-7.8,2.7-11c1.8-3.3,4.2-5.9,7.4-7.8c3.1-1.9,6.7-2.9,10.7-2.9c3.7,0,6.6,0.7,8.6,2.2c2,1.5,3.5,3.2,4.5,5.1l1.5-5.9h8.3
		l-3.3,23.2c-0.2,1.6-0.1,2.9,0.4,4c0.5,1.1,1.5,1.6,3.1,1.6c1.8,0,3.6-0.8,5.4-2.4c1.7-1.6,3.1-3.8,4.2-6.5
		c1.1-2.7,1.6-5.8,1.6-9.3c0-4.3-1-8.3-3.1-11.9c-2-3.6-5.1-6.5-9.1-8.7c-4-2.2-8.9-3.2-14.8-3.2c-6.1,0-11.4,0.8-15.8,2.5
		c-4.4,1.7-8.1,3.9-11,6.6c-2.9,2.7-5.3,5.6-7,8.8c-1.7,3.2-3,6.2-3.7,9.2c-0.7,3-1.1,5.6-1.1,7.7c0,6.1,1.2,11.1,3.6,15
		c2.4,3.9,5.7,6.8,9.9,8.7c4.2,1.9,8.9,2.8,14.2,2.8c3.3,0,6.6-0.5,9.9-1.6c3.3-1.1,6.3-2.5,9.1-4.3l3.5,5.1
		c-3.3,2.6-7.2,4.5-11.6,5.7C190.8,122.7,186.7,123.3,182.9,123.3 M186.8,98c2.7,0,5.1-0.8,7.2-2.3c2.1-1.5,3.7-3.6,4.8-6.3l0.9-7.4
		c-0.3-2.4-1.5-4.3-3.4-5.9c-1.9-1.6-4.3-2.3-7.2-2.3c-2.4,0-4.6,0.6-6.6,1.9c-2,1.3-3.5,2.9-4.7,5c-1.2,2-1.7,4.2-1.7,6.6
		c0,3.1,1,5.6,2.9,7.6C181.1,97,183.6,98,186.8,98"/>
</g>
</svg>
